HIERARCHY
ROOT Hips
{
	OFFSET	0.00	0.00	0.00
	CHANNELS 6 Xposition Yposition Zposition Zrotation Xrotation Yrotation
	JOINT LeftUpLeg
	{
		OFFSET	 0.126116	-0.065224	 0.014019
		CHANNELS 3 Zrotation Xrotation Yrotation
		JOINT LeftLeg
		{
			OFFSET	 0.000000	 0.569914	 0.000000
			CHANNELS 3 Zrotation Xrotation Yrotation
			JOINT LeftFoot
			{
				OFFSET	 0.000000	 0.544423	 0.000000
				CHANNELS 3 Zrotation Xrotation Yrotation
				JOINT LeftToeBase
				{
					OFFSET	 0.000000	 0.207117	 0.000000
					CHANNELS 3 Zrotation Xrotation Yrotation
					End Site
					{
						OFFSET	 0.000000	 0.207117	 0.000000
					}
				}
			}
		}
	}
	JOINT RightUpLeg
	{
		OFFSET	-0.124023	-0.065224	 0.008373
		CHANNELS 3 Zrotation Xrotation Yrotation
		JOINT RightLeg
		{
			OFFSET	 0.000000	 0.570047	 0.000000
			CHANNELS 3 Zrotation Xrotation Yrotation
			JOINT RightFoot
			{
				OFFSET	 0.000000	 0.544354	 0.000000
				CHANNELS 3 Zrotation Xrotation Yrotation
				JOINT RightToeBase
				{
					OFFSET	 0.000000	 0.207540	 0.000000
					CHANNELS 3 Zrotation Xrotation Yrotation
					End Site
					{
						OFFSET	 0.000000	 0.207540	 0.000000
					}
				}
			}
		}
	}
	JOINT Spine
	{
		OFFSET	 0.000184	 0.117403	 0.007763
		CHANNELS 3 Zrotation Xrotation Yrotation
		JOINT Spine1
		{
			OFFSET	 0.000000	 0.137269	 0.000000
			CHANNELS 3 Zrotation Xrotation Yrotation
			JOINT Spine2
			{
				OFFSET	 0.000000	 0.156879	 0.000000
				CHANNELS 3 Zrotation Xrotation Yrotation
				JOINT LeftShoulder
				{
					OFFSET	 0.080501	 0.160143	 0.002496
					CHANNELS 3 Zrotation Xrotation Yrotation
					JOINT LeftArm
					{
						OFFSET	 0.000000	 0.164363	 0.000000
						CHANNELS 3 Zrotation Xrotation Yrotation
						JOINT LeftForeArm
						{
							OFFSET	 0.000000	 0.364576	 0.000000
							CHANNELS 3 Zrotation Xrotation Yrotation
							JOINT LeftHand
							{
								OFFSET	 0.000000	 0.360812	 0.000000
								CHANNELS 3 Zrotation Xrotation Yrotation
								JOINT LeftHandIndex1
								{
									OFFSET	 0.000000	 0.086006	 0.000000
									CHANNELS 3 Zrotation Xrotation Yrotation
									JOINT LeftHandIndex2
									{
										OFFSET	 0.000000	 0.047237	 0.000000
										CHANNELS 3 Zrotation Xrotation Yrotation
										JOINT LeftHandIndex3
										{
											OFFSET	-0.004284	 0.038165	 0.000551
											CHANNELS 3 Zrotation Xrotation Yrotation
											End Site
											{
												OFFSET	-0.004284	 0.038165	 0.000551
											}
										}
									}
								}
							}
						}
					}
				}
				JOINT Neck
				{
					OFFSET	 0.000000	 0.176489	 0.000000
					CHANNELS 3 Zrotation Xrotation Yrotation
					JOINT Head
					{
						OFFSET	 0.000000	 0.077941	 0.001747
						CHANNELS 3 Zrotation Xrotation Yrotation
						End Site
						{
							OFFSET	 0.000000	 0.077941	 0.001747
						}
					}
				}
				JOINT RightShoulder
				{
					OFFSET	-0.080363	 0.159706	-0.000306
					CHANNELS 3 Zrotation Xrotation Yrotation
					JOINT RightArm
					{
						OFFSET	 0.000000	 0.164196	 0.000000
						CHANNELS 3 Zrotation Xrotation Yrotation
						JOINT RightForeArm
						{
							OFFSET	 0.000000	 0.365611	 0.000000
							CHANNELS 3 Zrotation Xrotation Yrotation
							JOINT RightHand
							{
								OFFSET	 0.000000	 0.360648	 0.000000
								CHANNELS 3 Zrotation Xrotation Yrotation
								JOINT RightHandIndex1
								{
									OFFSET	 0.000000	 0.069977	 0.000000
									CHANNELS 3 Zrotation Xrotation Yrotation
									JOINT RightHandIndex2
									{
										OFFSET	 0.000000	 0.052305	 0.000000
										CHANNELS 3 Zrotation Xrotation Yrotation
										JOINT RightHandIndex3
										{
											OFFSET	 0.009002	 0.042196	 0.000782
											CHANNELS 3 Zrotation Xrotation Yrotation
											End Site
											{
												OFFSET	 0.009002	 0.042196	 0.000782
											}
										}
									}
								}
							}
						}
					}
				}
			}
		}
	}
}
MOTION
Frames:    5
Frame Time: 0.01666667
 0.001467	 1.271715	 0.064728	 0.211208	-0.775918	 179.971400	-176.772500	 2.306261	-10.276410	 2.354488	-10.974640	-0.031233	-5.205830	 70.209210	 4.538066	 1.292262	 28.425850	-2.713146	 177.144500	 2.599956	 10.293130	-2.310199	-11.093050	 0.041875	 5.360669	 70.124340	-4.762587	-1.288183	 28.361890	 2.710176	 0.120951	 2.511800	-3.688993	 0.271296	 1.589709	-0.881813	-0.346764	-2.113860	 2.688570	-101.478000	 1.740669	 90.353390	 3.636640	 64.536850	-0.594759	 2.055960	 4.293190	 1.378054	 8.871655	 1.002200	-6.757756	-6.580301	 5.266122	 0.000000	 0.000000	 0.000000	 0.000000	 0.000000	 0.000000	 0.000000	 0.089846	-3.783161	 0.005928	-0.008943	 1.541767	 0.664622	 101.796200	-0.213314	-89.955450	-6.446491	 45.185050	 0.958548	-35.192870	 41.483740	 13.090900	-8.616945	-14.282540	-24.769700	 15.208500	 5.323790	 0.000000	 0.000000	 0.000000	 0.000000	 0.000000	 0.000000	 0.000000
 0.001454	 1.271714	 0.064727	 0.215794	-0.775999	 179.971500	-176.768500	 2.312052	-10.276130	 2.357018	-10.986140	-0.030753	-5.207491	 70.215210	 4.538860	 1.292262	 28.425850	-2.713146	 177.148600	 2.595051	 10.293410	-2.308062	-11.083040	 0.042283	 5.359361	 70.119140	-4.761964	-1.288183	 28.361890	 2.710176	 0.128646	 2.485921	-4.084069	 0.304297	 1.677042	-0.959501	-0.379200	-2.225236	 2.916195	-101.478000	 1.740662	 90.353390	 3.443944	 64.316070	-0.444651	 2.055932	 4.293111	 1.378024	 8.890221	 0.938502	-7.289320	-6.580301	 5.266122	 0.000000	 0.000000	 0.000000	 0.000000	 0.000000	 0.000000	 0.000000	 0.089846	-3.783161	 0.005928	-0.009596	 1.525314	 0.720839	 101.796200	-0.213305	-89.955460	-7.083575	 41.929390	 2.694746	-42.989570	 46.291400	 18.246390	-6.368510	-16.702290	-27.766660	 15.208500	 5.323790	 0.000000	 0.000000	 0.000000	 0.000000	 0.000000	 0.000000	 0.000000
 0.001441	 1.271713	 0.064726	 0.219886	-0.775994	 179.971500	-176.765000	 2.317410	-10.275870	 2.359414	-10.997030	-0.030294	-5.208776	 70.220900	 4.539309	 1.292262	 28.425850	-2.713146	 177.152200	 2.590585	 10.293640	-2.306159	-11.074130	 0.042651	 5.358421	 70.114520	-4.761662	-1.288183	 28.361890	 2.710176	 0.136327	 2.458960	-4.477857	 0.334963	 1.769843	-1.032640	-0.409090	-2.344106	 3.130271	-101.478000	 1.740674	 90.353390	 3.236291	 64.067090	-0.285298	 2.056354	 4.293973	 1.378044	 8.916803	 0.890619	-7.790790	-6.580301	 5.266122	 0.000000	 0.000000	 0.000000	 0.000000	 0.000000	 0.000000	 0.000000	 0.089846	-3.783161	 0.005928	-0.010182	 1.507958	 0.773696	 101.796200	-0.213318	-89.955450	-8.367311	 38.852620	 5.264270	-51.476470	 50.201290	 24.309150	-3.773672	-18.873990	-30.511720	 15.208500	 5.323790	 0.000000	 0.000000	 0.000000	 0.000000	 0.000000	 0.000000	 0.000000
 0.001431	 1.271711	 0.064726	 0.223000	-0.775912	 179.971700	-176.762300	 2.321845	-10.275690	 2.361414	-11.006120	-0.029913	-5.210299	 70.225630	 4.540163	 1.292262	 28.425850	-2.713146	 177.155000	 2.587095	 10.293830	-2.304700	-11.067310	 0.042933	 5.357384	 70.111030	-4.761122	-1.288183	 28.361890	 2.710176	 0.142690	 2.435072	-4.799044	 0.358306	 1.851638	-1.089684	-0.431695	-2.448027	 3.296471	-101.478000	 1.740663	 90.353380	 3.055802	 63.840730	-0.146256	 2.056127	 4.293493	 1.378060	 8.944928	 0.863922	-8.184134	-6.580301	 5.266122	 0.000000	 0.000000	 0.000000	 0.000000	 0.000000	 0.000000	 0.000000	 0.089846	-3.783161	 0.005928	-0.010614	 1.492940	 0.814651	 101.796200	-0.213313	-89.955440	-9.942418	 36.440220	 8.053895	-58.789300	 52.689010	 29.789190	-1.311551	-20.440390	-32.514170	 15.208500	 5.323790	 0.000000	 0.000000	 0.000000	 0.000000	 0.000000	 0.000000	 0.000000
 0.001419	 1.271709	 0.064726	 0.226402	-0.775748	 179.971900	-176.759500	 2.326724	-10.275440	 2.363647	-11.016270	-0.029489	-5.212138	 70.230930	 4.541305	 1.292262	 28.425850	-2.713146	 177.158100	 2.583221	 10.294060	-2.303129	-11.059950	 0.043233	 5.356063	 70.107230	-4.760313	-1.288183	 28.361890	 2.710176	 0.150260	 2.404598	-5.182374	 0.384488	 1.955925	-1.155262	-0.456853	-2.580601	 3.486393	-101.478000	 1.740651	 90.353390	 2.823492	 63.537280	 0.031984	 2.056165	 4.293664	 1.378030	 8.985997	 0.846111	-8.637653	-6.580301	 5.266122	 0.000000	 0.000000	 0.000000	 0.000000	 0.000000	 0.000000	 0.000000	 0.089846	-3.783161	 0.005928	-0.011082	 1.474029	 0.861449	 101.796200	-0.213313	-89.955460	-12.569680	 33.628560	 12.340810	-67.521290	 54.801130	 36.522600	 2.121610	-21.985910	-34.557450	 15.208500	 5.323790	 0.000000	 0.000000	 0.000000	 0.000000	 0.000000	 0.000000	 0.000000
